<?xml version="1.0" standalone="no"?>
<!DOCTYPE svg PUBLIC "-//W3C//DTD SVG 20010904//EN"
 "http://www.w3.org/TR/2001/REC-SVG-20010904/DTD/svg10.dtd">
<svg version="1.0" xmlns="http://www.w3.org/2000/svg"
 width="512.000000pt" height="512.000000pt" viewBox="0 0 512.000000 512.000000"
 preserveAspectRatio="xMidYMid meet">

<g transform="translate(0.000000,512.000000) scale(0.100000,-0.100000)"
fill="#747d8c" stroke="none">
<path d="M3879 5111 c-15 -5 -865 -348 -1889 -762 -1989 -805 -1915 -772
-1962 -863 -33 -61 -32 -165 3 -231 43 -84 73 -100 440 -229 l336 -117 36 -90
c20 -50 37 -94 37 -98 0 -5 -36 -23 -80 -41 l-80 -32 -35 27 c-91 69 -179 70
-339 5 -169 -69 -228 -137 -229 -263 0 -57 13 -94 172 -487 99 -244 184 -440
200 -460 44 -55 121 -90 197 -90 53 0 84 8 178 46 97 38 122 53 160 94 41 44
76 121 76 170 0 10 26 25 77 45 42 17 79 31 83 33 4 1 19 -27 34 -62 38 -89
92 -148 174 -188 59 -29 76 -33 147 -32 79 0 83 1 429 142 192 78 350 141 351
140 1 -2 16 -23 32 -48 78 -114 215 -208 356 -244 l48 -12 113 -241 c126 -267
150 -307 230 -381 69 -62 139 -103 231 -133 68 -23 83 -23 507 -27 l436 -3 4
-207 c3 -203 4 -208 32 -269 33 -73 103 -143 173 -175 42 -19 71 -22 221 -26
205 -5 231 -1 279 41 66 58 63 7 63 982 0 968 3 926 -59 978 -51 43 -91 49
-277 46 -168 -4 -170 -4 -236 -37 -77 -38 -130 -92 -167 -171 -25 -54 -26 -64
-29 -264 l-4 -207 -361 2 -361 3 -77 165 c-43 91 -78 171 -79 178 0 7 11 29
25 50 66 101 104 281 85 404 -6 39 -9 72 -7 74 2 2 232 96 511 209 279 113
527 219 551 235 90 62 139 156 139 270 1 66 -4 89 -43 187 l-43 111 26 35 c40
52 60 120 53 181 -4 35 -97 278 -295 767 -160 394 -297 729 -305 745 -20 37
-73 87 -116 109 -39 20 -134 28 -172 16z m115 -183 c19 -17 102 -213 316 -742
159 -396 290 -729 290 -740 -1 -41 -35 -64 -195 -129 -1269 -516 -1950 -787
-1972 -787 -16 0 -343 111 -728 245 -385 135 -881 309 -1103 387 -366 128
-404 144 -418 169 -20 39 -18 64 9 93 16 17 279 128 927 390 498 201 1333 538
1855 750 523 212 960 385 972 385 12 1 33 -9 47 -21z m576 -1836 c41 -103 44
-161 12 -214 -12 -20 -32 -42 -45 -50 -12 -8 -292 -124 -622 -258 -330 -133
-967 -391 -1415 -572 -448 -182 -831 -335 -851 -340 -47 -13 -110 4 -150 40
-23 22 -74 137 -253 580 -158 391 -219 552 -207 549 9 -2 313 -109 676 -236
560 -197 669 -232 718 -232 49 -1 85 11 255 79 570 231 962 389 1372 556 250
101 460 185 465 185 6 1 26 -38 45 -87z m-3998 -546 c22 -17 34 -43 212 -484
105 -259 145 -369 140 -386 -9 -36 -41 -60 -129 -95 -117 -46 -154 -42 -184
18 -22 43 -310 754 -321 793 -6 18 -3 37 8 59 14 28 32 39 107 70 96 40 140
46 167 25z m507 -309 c67 -165 119 -302 117 -306 -6 -9 -146 -65 -150 -60 -7
9 -246 608 -246 616 0 15 144 70 152 58 3 -5 61 -144 127 -308z m2334 -100
c12 -88 -19 -212 -74 -298 -140 -218 -436 -278 -656 -132 -49 32 -123 107
-123 124 0 3 98 46 218 95 119 48 307 125 417 170 110 46 203 83 206 83 4 1 9
-18 12 -42z m1537 -1112 l0 -855 -140 0 c-185 0 -231 18 -271 105 -17 38 -19
82 -19 740 0 461 4 713 11 738 5 21 22 52 37 68 42 47 89 58 245 59 l137 0 0
-855z m-1492 307 c46 -100 56 -115 87 -127 28 -12 106 -15 420 -15 l385 0 0
-170 0 -170 -393 0 c-242 0 -416 4 -453 11 -90 16 -162 55 -229 123 -55 55
-70 81 -156 266 l-96 205 71 17 c74 19 207 80 228 106 13 16 19 6 136 -246z"/>
</g>
</svg>
