<?xml version="1.0" standalone="no"?>
<!DOCTYPE svg PUBLIC "-//W3C//DTD SVG 20010904//EN"
 "http://www.w3.org/TR/2001/REC-SVG-20010904/DTD/svg10.dtd">
<svg version="1.0" xmlns="http://www.w3.org/2000/svg"
 width="512.000000pt" height="512.000000pt" viewBox="0 0 512.000000 512.000000"
 preserveAspectRatio="xMidYMid meet">

<g transform="translate(0.000000,512.000000) scale(0.100000,-0.100000)"
fill="#747d8c" stroke="none">
<path d="M800 4947 c-49 -16 -133 -102 -148 -153 -9 -32 -12 -349 -12 -1338
l0 -1296 -240 0 -240 0 0 -80 0 -80 647 0 646 0 362 120 362 120 271 -2 270
-3 -273 -228 c-249 -207 -276 -233 -302 -285 -24 -49 -28 -69 -28 -142 0 -76
3 -91 30 -139 59 -107 166 -167 286 -158 93 6 132 28 298 168 l145 121 368
-369 c335 -336 368 -371 368 -402 0 -45 -46 -91 -91 -91 -30 0 -62 29 -344
310 -171 171 -315 310 -321 310 -12 0 -104 -92 -104 -105 0 -5 122 -131 270
-280 244 -244 270 -274 270 -304 0 -45 -46 -91 -91 -91 -30 0 -57 24 -264 230
-127 127 -235 230 -241 230 -12 0 -104 -92 -104 -105 0 -5 86 -95 190 -200
169 -170 190 -195 190 -224 0 -45 -46 -91 -91 -91 -28 0 -50 17 -169 135 -122
121 -138 142 -154 191 -25 78 -85 138 -163 161 l-59 17 -17 59 c-24 80 -84
140 -164 164 l-59 17 -17 59 c-34 115 -144 186 -267 174 -56 -6 -58 -6 -64 19
-17 67 -138 144 -226 144 -81 0 -129 -28 -247 -143 -113 -110 -149 -162 -160
-231 l-6 -36 -473 0 -474 0 0 -80 0 -80 240 0 240 0 0 -296 c0 -204 4 -310 12
-338 16 -55 99 -138 154 -154 30 -9 160 -12 458 -12 l416 0 0 80 0 80 -415 0
-416 0 -24 25 -25 24 0 296 0 295 180 0 180 0 44 -34 c25 -19 66 -39 93 -46
48 -13 49 -13 66 -72 24 -81 84 -141 164 -165 l59 -17 17 -59 c34 -115 144
-186 267 -174 56 6 58 6 64 -19 10 -40 86 -109 141 -127 57 -20 103 -21 156
-6 36 11 40 10 79 -24 75 -64 164 -82 254 -51 46 16 112 69 133 107 9 17 12
16 61 -9 105 -54 218 -39 298 42 24 23 46 54 50 68 6 25 8 25 64 19 80 -8 150
17 206 73 24 23 46 54 50 68 6 25 8 25 64 19 162 -16 296 118 277 277 l-6 48
117 5 c139 5 171 16 296 97 54 35 104 60 119 60 l27 0 0 -335 0 -336 -25 -24
-24 -25 -416 0 -415 0 0 -80 0 -80 418 0 c483 0 483 0 555 80 24 26 49 66 55
88 8 27 12 145 12 376 l0 336 240 0 240 0 0 80 0 80 -357 0 c-261 -1 -368 -4
-393 -13 -19 -7 -70 -37 -113 -66 -112 -75 -134 -81 -311 -81 l-151 0 -204
204 -204 204 64 7 c121 14 241 65 330 139 l29 24 -47 59 c-26 32 -48 60 -49
62 -2 2 -20 -10 -41 -26 -179 -141 -405 -132 -571 22 l-57 53 -190 -160 c-105
-88 -206 -166 -225 -175 -40 -18 -99 -13 -136 12 -60 39 -82 130 -45 190 24
41 555 481 628 522 109 61 240 78 355 48 31 -8 181 -61 335 -117 l278 -103
538 -3 537 -3 0 81 0 80 -240 0 -240 0 0 1296 c0 973 -3 1307 -12 1336 -6 22
-31 62 -55 88 -78 87 86 80 -1857 79 -1224 -1 -1731 -4 -1756 -12z m3495 -172
l25 -24 0 -1296 0 -1295 -193 0 -193 0 -289 106 c-160 58 -319 112 -355 120
-51 11 -180 14 -604 14 l-539 0 -362 -120 -361 -120 -312 0 -312 0 0 1295 0
1296 25 24 24 25 1711 0 1711 0 24 -25z m-2714 -3434 c20 -21 29 -39 29 -62 0
-29 -15 -48 -108 -141 -93 -93 -112 -108 -141 -108 -45 0 -91 46 -91 91 0 29
15 48 108 141 93 93 112 108 141 108 23 0 41 -9 62 -29z m320 -160 c20 -21 29
-39 29 -62 0 -29 -17 -51 -148 -181 -130 -131 -152 -148 -181 -148 -45 0 -91
46 -91 91 0 29 17 51 148 181 130 131 152 148 181 148 23 0 41 -9 62 -29z
m240 -240 c20 -21 29 -39 29 -62 0 -29 -17 -51 -148 -181 -130 -131 -152 -148
-181 -148 -45 0 -91 46 -91 91 0 29 17 51 148 181 130 131 152 148 181 148 23
0 41 -9 62 -29z m240 -240 c20 -21 29 -39 29 -62 0 -29 -15 -48 -108 -141 -93
-93 -112 -108 -141 -108 -45 0 -91 46 -91 91 0 29 15 48 108 141 93 93 112
108 141 108 23 0 41 -9 62 -29z m168 -247 c30 -38 27 -80 -8 -115 -37 -37 -79
-38 -118 -5 l-28 25 60 60 c33 34 63 61 66 61 4 0 17 -12 28 -26z"/>
<path d="M2000 4480 l0 -80 560 0 560 0 0 80 0 80 -560 0 -560 0 0 -80z"/>
<path d="M1040 4080 l0 -80 1520 0 1520 0 0 80 0 80 -1520 0 -1520 0 0 -80z"/>
<path d="M1040 3760 l0 -80 1520 0 1520 0 0 80 0 80 -1520 0 -1520 0 0 -80z"/>
<path d="M1040 3440 l0 -80 840 0 840 0 0 80 0 80 -840 0 -840 0 0 -80z"/>
<path d="M1040 2960 l0 -80 480 0 480 0 0 80 0 80 -480 0 -480 0 0 -80z"/>
<path d="M3120 2960 l0 -80 480 0 480 0 0 80 0 80 -480 0 -480 0 0 -80z"/>
<path d="M1280 2640 l0 -80 200 0 200 0 0 80 0 80 -200 0 -200 0 0 -80z"/>
<path d="M3360 2640 l0 -80 200 0 200 0 0 80 0 80 -200 0 -200 0 0 -80z"/>
</g>
</svg>
