<?xml version="1.0" standalone="no"?>
<!DOCTYPE svg PUBLIC "-//W3C//DTD SVG 20010904//EN"
 "http://www.w3.org/TR/2001/REC-SVG-20010904/DTD/svg10.dtd">
<svg version="1.0" xmlns="http://www.w3.org/2000/svg"
 width="512.000000pt" height="512.000000pt" viewBox="0 0 512.000000 512.000000"
 preserveAspectRatio="xMidYMid meet">

<g transform="translate(0.000000,512.000000) scale(0.100000,-0.100000)"
fill="#747d8c" stroke="none">
<path d="M675 4511 c-11 -5 -31 -21 -45 -36 l-25 -27 0 -1569 0 -1569 33 -32
32 -33 230 -3 230 -3 0 40 0 41 -213 0 c-152 0 -216 3 -225 12 -9 9 -12 316
-12 1320 l0 1308 1880 0 1880 0 0 -1308 c0 -1004 -3 -1311 -12 -1320 -9 -9
-73 -12 -225 -12 l-213 0 0 -41 0 -40 230 3 230 3 32 33 33 32 0 1570 0 1570
-33 32 -32 33 -1878 2 c-1032 1 -1886 -2 -1897 -6z m3753 -83 c8 -8 12 -67 12
-200 l0 -188 -1880 0 -1880 0 0 188 c0 133 4 192 12 200 17 17 3719 17 3736 0z"/>
<path d="M3555 4351 c-45 -20 -70 -60 -70 -112 0 -42 5 -53 33 -81 28 -28 39
-33 82 -33 43 0 54 5 82 33 28 28 33 39 33 82 0 42 -5 54 -31 81 -33 33 -92
46 -129 30z m75 -86 c26 -32 -13 -81 -47 -59 -35 22 -23 74 17 74 10 0 23 -7
30 -15z"/>
<path d="M3875 4351 c-45 -20 -70 -60 -70 -112 0 -42 5 -53 33 -81 28 -28 39
-33 82 -33 43 0 54 5 82 33 28 28 33 39 33 82 0 42 -5 54 -31 81 -33 33 -92
46 -129 30z m75 -86 c26 -32 -13 -81 -47 -59 -35 22 -23 74 17 74 10 0 23 -7
30 -15z"/>
<path d="M4195 4351 c-45 -20 -70 -60 -70 -112 0 -42 5 -53 33 -81 28 -28 39
-33 82 -33 43 0 54 5 82 33 28 28 33 39 33 82 0 42 -5 54 -31 81 -33 33 -92
46 -129 30z m75 -86 c26 -32 -13 -81 -47 -59 -35 22 -23 74 17 74 10 0 23 -7
30 -15z"/>
<path d="M800 4240 l0 -40 1040 0 1040 0 0 40 0 40 -1040 0 -1040 0 0 -40z"/>
<path d="M2275 3711 c-11 -5 -31 -21 -45 -36 -23 -24 -25 -37 -30 -137 l-5
-111 -65 -22 c-153 -53 -271 -119 -404 -225 l-88 -71 -82 47 c-90 53 -143 61
-188 32 -27 -18 -260 -411 -287 -484 -13 -37 -13 -43 5 -80 15 -31 36 -49 107
-89 77 -44 87 -53 82 -73 -17 -69 -35 -228 -35 -302 0 -74 18 -233 35 -302 5
-20 -5 -29 -82 -73 -71 -40 -92 -58 -107 -89 -18 -37 -18 -43 -5 -80 27 -73
260 -466 287 -484 45 -29 98 -21 188 32 l82 47 88 -71 c133 -106 251 -172 404
-225 l65 -22 5 -111 c5 -110 5 -112 38 -144 l32 -33 290 0 290 0 32 33 c33 32
33 34 38 144 l5 111 65 22 c153 53 271 119 404 225 l88 71 82 -47 c93 -55 147
-63 191 -29 15 11 86 123 158 249 173 300 173 314 9 405 -73 41 -82 49 -77 69
16 66 35 227 35 302 0 75 -19 236 -35 302 -5 20 4 28 77 69 164 91 164 105 -9
405 -72 126 -143 238 -158 249 -44 34 -98 26 -191 -29 l-82 -47 -88 71 c-133
106 -251 172 -404 225 l-65 22 -5 111 c-5 110 -5 112 -38 144 l-32 33 -278 2
c-152 1 -286 -2 -297 -6z m553 -83 c8 -8 12 -51 12 -129 0 -81 4 -120 13 -127
6 -5 53 -24 104 -41 162 -54 300 -134 434 -252 37 -33 74 -59 84 -59 9 0 59
25 111 56 58 33 102 53 112 50 15 -5 248 -396 267 -447 8 -23 -11 -39 -110
-95 -48 -27 -90 -55 -95 -64 -5 -9 0 -51 12 -100 29 -122 29 -398 0 -520 -12
-49 -17 -91 -12 -100 5 -9 47 -37 95 -64 99 -56 118 -72 110 -95 -19 -51 -252
-442 -267 -447 -10 -3 -54 17 -112 50 -52 31 -101 56 -110 56 -9 0 -51 -29
-93 -65 -141 -121 -267 -193 -426 -246 -50 -17 -98 -36 -104 -41 -9 -7 -13
-46 -13 -127 0 -78 -4 -121 -12 -129 -17 -17 -519 -17 -536 0 -8 8 -12 51 -12
129 0 85 -4 120 -13 128 -8 6 -45 20 -82 32 -156 48 -307 133 -448 254 -42 36
-83 65 -92 65 -9 0 -59 -25 -111 -56 -57 -34 -101 -53 -112 -50 -9 3 -64 88
-122 188 -135 233 -151 264 -145 280 3 7 48 38 101 68 53 30 99 62 104 70 5 9
-1 51 -12 100 -29 122 -29 398 0 520 11 49 17 91 12 100 -5 8 -51 40 -104 70
-53 30 -98 61 -101 68 -6 17 -8 14 134 259 64 112 124 206 133 209 11 3 54
-16 112 -50 52 -31 102 -56 111 -56 9 0 50 30 93 66 141 120 281 200 447 254
39 12 76 27 83 33 8 6 12 45 12 126 0 78 4 121 12 129 17 17 519 17 536 0z"/>
<path d="M2380 3060 c-374 -80 -643 -350 -721 -725 -47 -228 1 -475 133 -676
202 -308 564 -466 921 -404 298 52 547 239 676 508 198 412 58 912 -328 1165
-201 132 -454 181 -681 132z m310 -71 c182 -29 325 -104 460 -239 179 -180
262 -394 247 -640 -14 -221 -87 -380 -247 -540 -165 -165 -365 -250 -590 -250
-225 0 -424 84 -590 250 -105 105 -162 194 -204 320 -78 234 -55 472 67 690
57 101 205 250 307 307 170 95 367 132 550 102z"/>
<path d="M2390 2827 c-120 -28 -117 -35 110 -262 121 -121 190 -197 190 -210
0 -27 -298 -325 -325 -325 -13 0 -90 70 -210 190 -157 158 -194 190 -215 188
-32 -4 -49 -53 -57 -163 -15 -209 85 -429 250 -552 146 -108 326 -154 482
-124 39 8 41 6 103 -53 l62 -61 30 31 31 30 -76 73 c-69 67 -78 73 -108 67
-153 -27 -269 -14 -385 45 -129 64 -235 186 -282 322 -23 68 -37 198 -26 243
7 27 11 24 174 -139 174 -174 196 -188 259 -172 32 8 335 302 360 349 10 19
13 43 10 69 -5 36 -23 58 -173 208 -164 164 -167 168 -140 175 16 4 63 4 105
1 232 -19 422 -170 497 -397 19 -60 25 -200 11 -283 l-8 -48 67 -69 c37 -39
73 -70 79 -70 6 0 22 11 35 25 l24 25 -55 56 -54 55 -1 137 c0 112 -4 149 -22
202 -86 259 -319 436 -587 446 -58 2 -123 -2 -155 -9z"/>
</g>
</svg>
