<?xml version="1.0" standalone="no"?>
<!DOCTYPE svg PUBLIC "-//W3C//DTD SVG 20010904//EN"
 "http://www.w3.org/TR/2001/REC-SVG-20010904/DTD/svg10.dtd">
<svg version="1.0" xmlns="http://www.w3.org/2000/svg"
 width="512.000000pt" height="512.000000pt" viewBox="0 0 512.000000 512.000000"
 preserveAspectRatio="xMidYMid meet">

<g transform="translate(0.000000,512.000000) scale(0.100000,-0.100000)"
fill="#f5f6fa" stroke="none">
<path d="M1065 4775 l-25 -24 0 -296 0 -295 -108 0 c-174 0 -279 -38 -384
-138 -65 -62 -120 -159 -137 -244 -8 -37 -11 -412 -9 -1248 l3 -1195 23 -58
c13 -31 39 -80 57 -107 l34 -50 -115 0 c-110 0 -116 -1 -140 -25 l-26 -26 4
-222 3 -223 37 -76 c45 -91 103 -147 196 -191 l67 -32 2015 0 2015 0 67 32
c93 44 151 100 196 191 l37 76 3 223 4 222 -26 26 c-24 24 -30 25 -140 25
l-115 0 34 50 c18 27 44 76 57 107 l23 58 3 1189 c2 784 -1 1208 -8 1245 -33
178 -176 329 -355 376 -36 9 -102 15 -167 15 l-108 0 0 295 0 296 -25 24 -24
25 -1471 0 -1471 0 -24 -25z m2855 -1735 l0 -1600 -1360 0 -1360 0 0 1600 0
1600 1360 0 1360 0 0 -1600z m-2880 880 l0 -80 -56 0 c-31 0 -75 -5 -98 -12
-55 -16 -138 -99 -154 -154 -17 -60 -17 -2168 0 -2228 16 -55 99 -138 154
-154 60 -17 3288 -17 3348 0 55 16 138 99 154 154 17 60 17 2168 0 2228 -16
55 -99 138 -154 154 -23 7 -67 12 -98 12 l-56 0 0 81 0 81 123 -4 c107 -4 128
-8 173 -31 75 -38 107 -69 145 -139 l34 -63 0 -1205 0 -1205 -34 -63 c-38 -70
-69 -100 -145 -140 l-51 -27 -1765 0 -1765 0 -51 27 c-76 40 -107 70 -145 140
l-34 63 0 1205 0 1205 27 51 c39 73 69 106 129 139 70 38 95 43 217 44 l102 1
0 -80z m0 -1360 l0 -1120 -55 0 c-46 0 -60 4 -80 25 l-25 24 0 1071 0 1071 25
24 c20 21 34 25 80 25 l55 0 0 -1120z m3175 1095 l25 -24 0 -1071 0 -1071 -25
-24 c-20 -21 -34 -25 -80 -25 l-55 0 0 1120 0 1120 55 0 c46 0 60 -4 80 -25z
m-2375 -2751 c0 -31 5 -75 12 -98 16 -55 99 -138 154 -154 59 -17 1049 -17
1108 0 55 16 138 99 154 154 7 23 12 67 12 98 l0 56 720 0 720 0 0 -136 c0
-78 -5 -154 -12 -178 -16 -55 -99 -138 -154 -154 -60 -18 -3928 -18 -3988 0
-55 16 -138 99 -154 154 -7 24 -12 100 -12 178 l0 136 720 0 720 0 0 -56z
m1280 1 c0 -46 -4 -60 -25 -80 l-24 -25 -511 0 -511 0 -24 25 c-21 20 -25 34
-25 80 l0 55 560 0 560 0 0 -55z"/>
<path d="M1455 4306 c-41 -18 -83 -69 -91 -110 -3 -19 -4 -84 -2 -144 2 -93 6
-115 24 -138 44 -60 67 -69 185 -72 l109 -4 0 -79 0 -79 -80 0 c-65 0 -80 3
-80 15 0 9 -11 27 -25 40 -33 33 -78 33 -112 -1 -45 -45 -21 -134 51 -188 25
-19 42 -21 166 -21 151 0 167 5 214 69 19 25 21 42 21 166 0 124 -2 141 -21
166 -44 60 -67 69 -185 72 l-109 4 0 79 0 79 80 0 c65 0 80 -3 80 -15 0 -9 11
-27 25 -40 33 -33 78 -33 112 1 45 45 21 134 -51 188 -24 18 -44 21 -154 24
-91 1 -136 -2 -157 -12z"/>
<path d="M2095 4306 c-37 -17 -70 -52 -84 -89 -7 -18 -11 -143 -11 -338 l0
-310 25 -24 c15 -16 36 -25 55 -25 19 0 40 9 55 25 24 23 25 29 25 160 l0 135
80 0 80 0 0 -135 c0 -131 1 -137 25 -160 32 -33 78 -33 111 0 l25 25 -3 324
c-3 310 -4 326 -24 352 -46 62 -65 69 -202 72 -91 1 -135 -2 -157 -12z m225
-226 l0 -80 -80 0 -80 0 0 80 0 80 80 0 80 0 0 -80z"/>
<path d="M2665 4295 l-25 -24 0 -351 0 -351 25 -24 c24 -25 26 -25 215 -25
189 0 191 0 215 25 16 15 25 36 25 55 0 19 -9 40 -25 55 -23 24 -29 25 -160
25 l-135 0 0 295 0 296 -25 24 c-15 16 -36 25 -55 25 -19 0 -40 -9 -55 -25z"/>
<path d="M3305 4295 l-25 -24 0 -351 0 -351 25 -24 c24 -25 26 -25 215 -25
189 0 191 0 215 25 16 15 25 36 25 55 0 19 -9 40 -25 55 -23 24 -29 25 -160
25 l-135 0 0 80 0 80 135 0 c131 0 137 1 160 25 33 32 33 78 0 110 -23 24 -29
25 -160 25 l-135 0 0 80 0 80 135 0 c131 0 137 1 160 25 16 15 25 36 25 55 0
19 -9 40 -25 55 -24 25 -26 25 -215 25 -189 0 -191 0 -215 -25z"/>
<path d="M2505 3015 c-16 -15 -25 -36 -25 -55 0 -19 9 -40 25 -55 l24 -25 591
0 591 0 24 25 c16 15 25 36 25 55 0 19 -9 40 -25 55 l-24 25 -591 0 -591 0
-24 -25z"/>
<path d="M1385 2695 c-16 -15 -25 -36 -25 -55 0 -19 9 -40 25 -55 l24 -25
1151 0 1151 0 24 25 c16 15 25 36 25 55 0 19 -9 40 -25 55 l-24 25 -1151 0
-1151 0 -24 -25z"/>
<path d="M1385 2375 c-16 -15 -25 -36 -25 -55 0 -19 9 -40 25 -55 l24 -25
1151 0 1151 0 24 25 c16 15 25 36 25 55 0 19 -9 40 -25 55 l-24 25 -1151 0
-1151 0 -24 -25z"/>
<path d="M1385 2055 c-16 -15 -25 -36 -25 -55 0 -19 9 -40 25 -55 l24 -25 831
0 831 0 24 25 c16 15 25 36 25 55 0 19 -9 40 -25 55 l-24 25 -831 0 -831 0
-24 -25z"/>
</g>
</svg>
